<?xml version="1.0" standalone="no"?>
<!DOCTYPE svg PUBLIC "-//W3C//DTD SVG 20010904//EN" "http://www.w3.org/TR/2001/REC-SVG-20010904/DTD/svg10.dtd">
<svg version="1.0" xmlns="http://www.w3.org/2000/svg" width="512.000000pt" height="512.000000pt" viewBox="0 0 512.000000 512.000000" preserveAspectRatio="xMidYMid meet">

  <g transform="translate(0.000000,512.000000) scale(0.100000,-0.100000)" fill="#000000" stroke="none">
    <path d="M2283 4845 c-1161 -148 -2023 -1122 -2023 -2285 0 -1188 895 -2172
2085 -2291 245 -24 560 2 805 67 739 196 1333 748 1583 1470 380 1098 -118
2311 -1158 2819 -210 102 -402 164 -640 206 -158 27 -489 35 -652 14z m-193
-1945 l0 -120 -125 0 -125 0 -2 -337 -3 -338 -134 -3 c-101 -2 -136 1 -143 10
-4 7 -8 160 -8 341 l0 327 -125 0 -125 0 0 113 c0 63 3 117 7 120 3 4 181 7
395 7 l388 0 0 -120z m810 0 l0 -120 -240 0 -240 0 0 -55 0 -55 240 0 240 0 0
-110 0 -110 -240 0 -240 0 0 -55 0 -55 240 0 240 0 0 -120 0 -120 -354 0
c-194 0 -368 3 -385 6 l-31 7 0 447 c0 245 3 450 7 453 3 4 177 7 385 7 l378
0 0 -120z m594 109 c116 -21 206 -81 261 -175 35 -60 65 -183 65 -268 -1 -271
-136 -429 -391 -456 -51 -5 -181 -10 -286 -10 l-193 0 0 460 0 460 243 0 c134
0 269 -5 301 -11z" />
    <path d="M3230 2561 l0 -221 73 0 c77 1 136 17 169 47 63 55 81 203 36 290
-35 68 -87 95 -195 101 l-83 5 0 -222z" />
  </g>
</svg>